HIERARCHY
ROOT Hips
{
  OFFSET 57.8838 95.319 338.509
  CHANNELS 6 Xposition Yposition Zposition Zrotation Xrotation Yrotation
  JOINT LeftUpLeg
  {
    OFFSET 8.64259 1.95398 -2.38835
    CHANNELS 3 Zrotation Xrotation Yrotation
    JOINT LeftLeg
    {
      OFFSET 43.7702 0 0
      CHANNELS 3 Zrotation Xrotation Yrotation
      JOINT LeftFoot
      {
        OFFSET 40.6238 0 0
        CHANNELS 3 Zrotation Xrotation Yrotation
        JOINT LeftToeBase
        {
          OFFSET 12.7242 0 0
          CHANNELS 3 Zrotation Xrotation Yrotation
          End Site
          {
            OFFSET 0 0 0
          }
        }
      }
    }
  }
  JOINT RightUpLeg
  {
    OFFSET -8.2249 1.95398 -2.59336
    CHANNELS 3 Zrotation Xrotation Yrotation
    JOINT RightLeg
    {
      OFFSET 43.5653 0 0
      CHANNELS 3 Zrotation Xrotation Yrotation
      JOINT RightFoot
      {
        OFFSET 40.6238 0 0
        CHANNELS 3 Zrotation Xrotation Yrotation
        JOINT RightToeBase
        {
          OFFSET 12.7242 0 0
          CHANNELS 3 Zrotation Xrotation Yrotation
          End Site
          {
            OFFSET 0 0 0
          }
        }
      }
    }
  }
  JOINT Spine
  {
    OFFSET 0.165834 0.87714 6.61349
    CHANNELS 3 Zrotation Xrotation Yrotation
    JOINT Spine1
    {
      OFFSET 7.38963 1.71661e-005 0
      CHANNELS 3 Zrotation Xrotation Yrotation
      JOINT Spine2
      {
        OFFSET 11.9445 1.14441e-005 0
        CHANNELS 3 Zrotation Xrotation Yrotation
        JOINT Spine3
        {
          OFFSET 14.7254 4.19617e-005 0
          CHANNELS 3 Zrotation Xrotation Yrotation
          JOINT Spine4
          {
            OFFSET 10.9679 0 0
            CHANNELS 3 Zrotation Xrotation Yrotation
            JOINT RightShoulder
            {
              OFFSET 2.46616 -1.6653 3.69651
              CHANNELS 3 Zrotation Xrotation Yrotation
              JOINT RightArm
              {
                OFFSET 13.0012 0 0
                CHANNELS 3 Zrotation Xrotation Yrotation
                JOINT RightForeArm
                {
                  OFFSET 28.7848 1.62311e-005 0
                  CHANNELS 3 Zrotation Xrotation Yrotation
                  JOINT RightHand
                  {
                    OFFSET 26.5688 1.62095e-005 0
                    CHANNELS 3 Zrotation Xrotation Yrotation
                    End Site
                    {
                      OFFSET 0 0 0
                    }
                  }
                }
              }
            }
            JOINT LeftShoulder
            {
              OFFSET 2.38034 -1.29275 -3.7523
              CHANNELS 3 Zrotation Xrotation Yrotation
              JOINT LeftArm
              {
                OFFSET 16.3182 6.07031e-005 0
                CHANNELS 3 Zrotation Xrotation Yrotation
                JOINT LeftForeArm
                {
                  OFFSET 27.0901 0 0
                  CHANNELS 3 Zrotation Xrotation Yrotation
                  JOINT LeftHand
                  {
                    OFFSET 24.5451 1.51738e-005 0
                    CHANNELS 3 Zrotation Xrotation Yrotation
                    End Site
                    {
                      OFFSET 0 0 0
                    }
                  }
                }
              }
            }
            JOINT Neck
            {
              OFFSET 5.0226 -0.0266342 0
              CHANNELS 3 Zrotation Xrotation Yrotation
              JOINT Head
              {
                OFFSET 6.69364 2.86102e-005 0
                CHANNELS 3 Zrotation Xrotation Yrotation
                End Site
                {
                  OFFSET 0 0 0
                }
              }
            }
          }
        }
      }
    }
  }
}
MOTION
Frames:	7
Frame Time:	0.0416667
-315.539 95.0623 27.4388 93.6286 2.56203 91.2986 -177.944 -1.57231 88.4373 -7.73282 9.65074 1.30202 58.5664 2.53468 8.59823 36.7344 3.30074 3.94655 172.342 3.13909 92.512 -17.4962 7.49046 -0.042666 67.7259 0.371392 11.098 26.2035 3.13161 3.09474 -0.279105 7.27615 -90.207 12.3207 -0.652864 -0.339442 0.649825 -0.667122 -0.310391 -21.8859 -0.520651 -0.519963 -1.87323 -0.520648 -0.519961 98.3825 -50.6225 -87.8281 32.4246 -16.3283 -9.04596 -2.21606 -17.6185 -19.567 -18.276 -1.42671 3.88378 -79.7805 -51.5373 94.198 -39.0391 -20.8666 -16.1381 3.45412 64.9025 -3.97476 8.59107 -0.462754 -8.26421 4.69475 0.663363 -14.3035 -14.1953 1.06709 22.0306 
-315.538 95.0531 27.5164 93.4185 2.16623 91.4917 -177.643 -1.42514 88.7464 -7.65141 9.77655 1.13508 58.601 2.51318 8.67196 36.5544 3.22749 4.32103 172.634 3.15121 92.7893 -17.0155 7.42973 -0.162754 67.7571 0.0780238 11.3695 25.9977 3.43529 2.65872 -0.240181 7.24281 -90.2351 12.3871 -0.588898 -0.402283 0.716278 -0.60603 -0.375979 -21.8191 -0.440778 -0.560674 -1.80639 -0.440792 -0.560683 98.3007 -50.4752 -87.9653 32.6066 -16.2238 -8.95457 -1.75421 -16.5464 -18.9109 -17.9337 -1.20922 2.66304 -79.8559 -51.792 94.0958 -39.0168 -21.2728 -16.1895 2.65743 64.7805 -2.9392 9.29697 -0.31317 -6.53669 12.4276 0.694959 -11.0431 -25.4776 0.295419 14.8708 
-315.485 95.0525 27.4769 93.5277 2.21986 91.4472 -177.764 -1.60253 88.6474 -7.70656 10.1114 1.24322 58.5941 2.60939 8.78928 36.7117 3.30468 4.6364 172.496 3.12989 92.7043 -17.2743 7.42971 -0.0980329 67.6833 0.332181 11.0756 26.2473 3.06966 3.16673 -0.236853 7.26151 -90.2338 12.3498 -0.581575 -0.400746 0.678883 -0.598676 -0.374765 -21.8564 -0.434259 -0.557003 -1.84377 -0.434281 -0.557012 98.3963 -50.5202 -87.8141 32.5017 -16.0626 -9.00481 -1.6686 -16.3614 -18.8478 -18.0844 -1.16006 2.27182 -79.8173 -51.7226 94.1508 -38.7263 -20.7045 -16.3094 1.35717 64.2927 -2.24482 9.55163 -0.200107 -5.42017 10.9359 0.724015 -11.8886 -23.4571 0.408662 16.41 
-315.458 95.02 27.5707 93.3637 2.01534 91.4442 -177.776 -1.5082 88.6822 -7.6872 10.4447 1.24713 58.58 2.59006 9.02623 37.0128 3.44161 4.67195 172.523 3.34038 92.7471 -17.3611 7.5003 -0.0855184 67.8408 0.15063 11.317 25.9197 3.48879 3.1058 -0.230071 7.24138 -90.2482 12.3899 -0.575041 -0.429979 0.719033 -0.593432 -0.404254 -21.8162 -0.419212 -0.582921 -1.80351 -0.41924 -0.582925 98.4302 -50.1275 -87.7911 32.7156 -15.9975 -9.04545 -1.65051 -16.3885 -18.8153 -18.1155 -1.15699 2.24044 -79.5477 -51.948 94.5589 -38.8647 -20.9501 -16.2812 2.15263 64.5365 -2.82781 9.29049 -0.216238 -5.60072 10.2126 1.06695 -11.0599 -22.1907 0.753211 15.9274 
-315.44 95.0953 27.581 93.3996 2.1906 91.3585 -177.896 -1.55034 88.5694 -7.72208 10.5836 1.30577 58.5654 2.65905 9.13846 36.9158 3.4001 4.78333 172.387 3.58163 92.7355 -18.0661 7.44912 -0.0191969 67.626 1.57701 11.9054 26.6381 2.68773 1.88999 -0.289225 7.28594 -90.2909 12.3003 -0.712706 -0.500367 0.629492 -0.73405 -0.468515 -21.9059 -0.529383 -0.691435 -1.89321 -0.529388 -0.691435 98.4504 -49.0078 -87.8438 33.3979 -16.29 -9.34141 -1.87461 -16.9638 -18.8735 -18.0486 -1.22018 2.68013 -78.9237 -52.8076 95.5042 -38.0973 -20.3353 -16.6518 0.916234 63.7416 -2.05613 10.3347 -0.156484 -4.95799 11.6251 1.6738 -8.97548 -23.36 1.11024 14.3759 
-315.453 95.0358 27.6644 93.261 1.98666 91.4545 -177.698 -1.33159 88.7635 -7.65833 9.76605 1.17809 58.5778 2.4855 8.73081 36.9068 3.38531 4.29365 172.479 3.31864 92.7582 -17.136 7.31064 0.0351697 67.906 -0.0187829 11.1907 25.9468 3.48116 2.83877 -0.248624 7.28806 -90.257 12.2964 -0.615895 -0.443656 0.625531 -0.634841 -0.416121 -21.9097 -0.454095 -0.608246 -1.89708 -0.454073 -0.608246 98.411 -49.6297 -87.8585 33.0256 -16.3218 -9.52742 -1.80123 -16.772 -18.8264 -17.735 -1.17404 2.51659 -79.1724 -51.8541 95.1125 -38.6065 -20.1122 -16.8915 0.453004 64.5052 -1.54702 9.70614 -0.164338 -5.07456 11.8578 1.22007 -10.4958 -23.5395 0.807422 15.5348 
-315.436 95.0756 27.69 93.1416 2.08768 91.465 -177.772 -1.14143 88.7328 -7.61099 8.69238 1.26499 58.5604 2.20679 8.08772 36.8483 3.34205 3.51914 172.353 3.24918 92.678 -16.8268 7.00811 0.20987 67.6785 -0.0428605 10.9718 26.0072 3.37019 3.18763 -0.26703 7.28191 -90.2628 12.3086 -0.655306 -0.450672 0.63775 -0.674491 -0.4214 -21.8976 -0.48954 -0.626773 -1.88495 -0.489568 -0.626786 98.5457 -49.3472 -87.6688 33.3509 -16.3656 -9.52111 -1.90323 -16.796 -18.9301 -17.5369 -1.10752 2.16441 -79.7842 -52.802 94.2409 -37.6579 -21.1005 -16.2492 3.02589 65.4947 -4.03454 8.34025 -0.176833 -5.29249 12.2612 1.64205 -9.87782 -23.9688 1.19028 14.8072 
